<?xml version="1.0" standalone="no"?>
<!DOCTYPE svg PUBLIC "-//W3C//DTD SVG 20010904//EN"
 "http://www.w3.org/TR/2001/REC-SVG-20010904/DTD/svg10.dtd">
<svg version="1.0" xmlns="http://www.w3.org/2000/svg"
 width="48.000000pt" height="48.000000pt" viewBox="0 0 48.000000 48.000000"
 preserveAspectRatio="xMidYMid meet">

<g transform="translate(0.000000,48.000000) scale(0.100000,-0.100000)"
fill="#000000" stroke="none">
<path d="M52 428 c-18 -18 -15 -29 13 -58 23 -24 24 -28 10 -40 -28 -23 -16
-31 43 -28 l57 3 3 58 c3 58 -5 70 -28 42 -12 -14 -16 -13 -40 10 -29 28 -40
31 -58 13z"/>
<path d="M307 173 c-10 -10 -8 -113 2 -113 5 0 14 7 21 15 12 14 16 13 41 -11
49 -47 92 -4 45 45 -24 25 -25 29 -11 41 8 7 15 16 15 21 0 10 -103 12 -113 2z"/>
</g>
</svg>
