<?xml version="1.0" standalone="no"?>
<!DOCTYPE svg PUBLIC "-//W3C//DTD SVG 20010904//EN"
 "http://www.w3.org/TR/2001/REC-SVG-20010904/DTD/svg10.dtd">
<svg version="1.0" xmlns="http://www.w3.org/2000/svg"
 width="48.000000pt" height="48.000000pt" viewBox="0 0 48.000000 48.000000"
 preserveAspectRatio="xMidYMid meet">

<g transform="translate(0.000000,48.000000) scale(0.100000,-0.100000)"
fill="#000000" stroke="none">
<path d="M92 388 c-7 -7 -12 -36 -12 -65 0 -43 4 -54 21 -64 21 -11 104 -8
115 4 12 12 15 84 5 110 -10 25 -15 27 -64 27 -29 0 -58 -5 -65 -12z"/>
<path d="M259 373 c-10 -26 -7 -98 5 -110 11 -12 94 -15 115 -4 17 10 21 21
21 64 0 29 -5 58 -12 65 -7 7 -36 12 -65 12 -49 0 -54 -2 -64 -27z"/>
<path d="M87 213 c-13 -13 -7 -110 7 -122 8 -7 37 -11 67 -9 50 3 54 5 62 35
5 17 6 48 3 67 l-7 36 -63 0 c-34 0 -66 -3 -69 -7z"/>
<path d="M254 185 c-3 -20 -2 -51 3 -68 8 -30 11 -32 64 -35 70 -4 81 8 77 80
l-3 53 -67 3 -67 3 -7 -36z"/>
</g>
</svg>
