<?xml version="1.0" standalone="no"?>
<!DOCTYPE svg PUBLIC "-//W3C//DTD SVG 20010904//EN"
 "http://www.w3.org/TR/2001/REC-SVG-20010904/DTD/svg10.dtd">
<svg version="1.0" xmlns="http://www.w3.org/2000/svg"
 width="64.000000pt" height="64.000000pt" viewBox="0 0 64.000000 64.000000"
 preserveAspectRatio="xMidYMid meet">

<g transform="translate(0.000000,64.000000) scale(0.100000,-0.100000)"
fill="#f1f1f1" stroke="none">
<path d="M72 574 c-22 -15 -22 -18 -22 -254 0 -236 0 -239 22 -254 33 -24 463
-24 496 0 22 15 22 18 22 254 0 236 0 239 -22 254 -33 24 -463 24 -496 0z
m486 -26 c17 -17 17 -439 0 -456 -17 -17 -459 -17 -476 0 -17 17 -17 439 0
456 17 17 459 17 476 0z"/>
<path d="M110 320 l0 -200 95 0 95 0 0 200 0 200 -95 0 -95 0 0 -200z m160 0
l0 -180 -65 0 -65 0 0 180 0 180 65 0 65 0 0 -180z"/>
<path d="M340 320 l0 -200 95 0 95 0 0 200 0 200 -95 0 -95 0 0 -200z m160 0
l0 -180 -65 0 -65 0 0 180 0 180 65 0 65 0 0 -180z"/>
</g>
</svg>
