<?xml version="1.0" standalone="no"?>
<!DOCTYPE svg PUBLIC "-//W3C//DTD SVG 20010904//EN"
 "http://www.w3.org/TR/2001/REC-SVG-20010904/DTD/svg10.dtd">
<svg version="1.0" xmlns="http://www.w3.org/2000/svg"
 width="64.000000pt" height="64.000000pt" viewBox="0 0 64.000000 64.000000"
 preserveAspectRatio="xMidYMid meet">

<g transform="translate(0.000000,64.000000) scale(0.100000,-0.100000)"
fill="#000000" stroke="none">
<path d="M32 608 c-16 -16 -16 -210 0 -226 16 -16 210 -16 226 0 16 16 16 210
0 226 -16 16 -210 16 -226 0z m206 -115 l-3 -98 -90 0 -90 0 -3 98 -3 97 96 0
96 0 -3 -97z"/>
<path d="M74 557 c-3 -8 -4 -41 -2 -73 l3 -59 70 0 70 0 0 70 0 70 -68 3 c-51
2 -69 -1 -73 -11z m116 -67 l0 -50 -45 0 -45 0 0 50 0 50 45 0 45 0 0 -50z"/>
<path d="M382 608 c-16 -16 -16 -210 0 -226 16 -16 210 -16 226 0 16 16 16
210 0 226 -16 16 -210 16 -226 0z m206 -115 l-3 -98 -90 0 -90 0 -3 98 -3 97
96 0 96 0 -3 -97z"/>
<path d="M424 557 c-3 -8 -4 -41 -2 -73 l3 -59 70 0 70 0 0 70 0 70 -68 3
c-51 2 -69 -1 -73 -11z m116 -67 l0 -50 -45 0 -45 0 0 50 0 50 45 0 45 0 0
-50z"/>
<path d="M32 258 c-16 -16 -16 -210 0 -226 16 -16 210 -16 226 0 16 16 16 210
0 226 -16 16 -210 16 -226 0z m208 -113 l0 -95 -95 0 -95 0 0 95 0 95 95 0 95
0 0 -95z"/>
<path d="M74 207 c-3 -8 -4 -41 -2 -73 l3 -59 70 0 70 0 0 70 0 70 -68 3 c-51
2 -69 -1 -73 -11z m116 -62 l0 -45 -45 0 -45 0 0 45 0 45 45 0 45 0 0 -45z"/>
<path d="M382 258 c-16 -16 -16 -210 0 -226 16 -16 210 -16 226 0 16 16 16
210 0 226 -16 16 -210 16 -226 0z m208 -113 l0 -95 -95 0 -95 0 0 95 0 95 95
0 95 0 0 -95z"/>
<path d="M424 207 c-3 -8 -4 -41 -2 -73 l3 -59 70 0 70 0 0 70 0 70 -68 3
c-51 2 -69 -1 -73 -11z m116 -62 l0 -45 -45 0 -45 0 0 45 0 45 45 0 45 0 0
-45z"/>
</g>
</svg>
