<?xml version="1.0" standalone="no"?>
<!DOCTYPE svg PUBLIC "-//W3C//DTD SVG 20010904//EN"
 "http://www.w3.org/TR/2001/REC-SVG-20010904/DTD/svg10.dtd">
<svg version="1.0" xmlns="http://www.w3.org/2000/svg"
 width="64.000000pt" height="64.000000pt" viewBox="0 0 64.000000 64.000000"
 preserveAspectRatio="xMidYMid meet">

<g transform="translate(0.000000,64.000000) scale(0.100000,-0.100000)"
fill="#000000" stroke="none">
<path d="M27 603 c-4 -3 -7 -131 -7 -283 0 -201 3 -279 12 -288 19 -19 561
-17 577 2 8 9 11 95 9 292 l-3 279 -291 3 c-160 1 -293 -1 -297 -5z m183 -98
l0 -75 -75 0 -75 0 0 75 0 75 75 0 75 0 0 -75z m190 0 l0 -75 -80 0 -80 0 0
75 0 75 80 0 80 0 0 -75z m180 0 l0 -75 -75 0 -75 0 0 75 0 75 75 0 75 0 0
-75z m-370 -185 l0 -80 -75 0 -75 0 0 80 0 80 75 0 75 0 0 -80z m190 0 l0 -80
-80 0 -80 0 0 80 0 80 80 0 80 0 0 -80z m180 0 l0 -80 -75 0 -75 0 0 80 0 80
75 0 75 0 0 -80z m-370 -190 l0 -80 -75 0 -75 0 0 80 0 80 75 0 75 0 0 -80z
m188 3 l-3 -78 -75 0 -75 0 -3 78 -3 77 81 0 81 0 -3 -77z m182 -3 l0 -80 -75
0 -75 0 0 80 0 80 75 0 75 0 0 -80z"/>
</g>
</svg>
