<?xml version="1.0" standalone="no"?>
<!DOCTYPE svg PUBLIC "-//W3C//DTD SVG 20010904//EN"
 "http://www.w3.org/TR/2001/REC-SVG-20010904/DTD/svg10.dtd">
<svg version="1.0" xmlns="http://www.w3.org/2000/svg"
 width="48.000000pt" height="48.000000pt" viewBox="0 0 48.000000 48.000000"
 preserveAspectRatio="xMidYMid meet">

<g transform="translate(0.000000,48.000000) scale(0.100000,-0.100000)"
fill="#000000" stroke="none">
<path d="M60 365 c0 -42 3 -55 15 -55 10 0 15 10 15 27 l0 27 28 -27 c51 -49
74 -26 25 25 l-27 28 27 0 c17 0 27 5 27 15 0 12 -13 15 -55 15 l-55 0 0 -55z"/>
<path d="M310 405 c0 -10 10 -15 27 -15 l27 0 -27 -28 c-49 -51 -26 -74 25
-25 l28 27 0 -27 c0 -17 5 -27 15 -27 12 0 15 13 15 55 l0 55 -55 0 c-42 0
-55 -3 -55 -15z"/>
<path d="M180 240 l0 -60 60 0 60 0 0 60 0 60 -60 0 -60 0 0 -60z"/>
<path d="M60 115 l0 -55 55 0 c42 0 55 3 55 15 0 10 -10 15 -27 15 l-27 0 27
28 c49 51 26 74 -25 25 l-28 -27 0 27 c0 17 -5 27 -15 27 -12 0 -15 -13 -15
-55z"/>
<path d="M310 158 c0 -7 12 -25 27 -40 l27 -28 -27 0 c-17 0 -27 -5 -27 -15 0
-12 13 -15 55 -15 l55 0 0 55 c0 42 -3 55 -15 55 -10 0 -15 -10 -15 -27 l0
-27 -28 27 c-30 29 -52 35 -52 15z"/>
</g>
</svg>
